<svg width="16" height="14" viewBox="0 0 16 14" fill="none" xmlns="http://www.w3.org/2000/svg">
<path d="M10.0527 8.36893H9.73689V4.42157C9.73689 4.37969 9.72025 4.33953 9.69064 4.30992C9.66103 4.28031 9.62087 4.26367 9.57899 4.26367C9.53712 4.26367 9.49695 4.28031 9.46734 4.30992C9.43773 4.33953 9.4211 4.37969 9.4211 4.42157V8.36893H7.52636V4.42157C7.52636 4.37969 7.50973 4.33953 7.48011 4.30992C7.4505 4.28031 7.41034 4.26367 7.36847 4.26367C7.32659 4.26367 7.28643 4.28031 7.25682 4.30992C7.22721 4.33953 7.21057 4.37969 7.21057 4.42157V8.52683C7.21057 8.56871 7.22721 8.60887 7.25682 8.63848C7.28643 8.66809 7.32659 8.68472 7.36847 8.68472H9.4211V11.9816C9.4211 12.0234 9.43773 12.0636 9.46734 12.0932C9.49695 12.1228 9.53712 12.1395 9.57899 12.1395C9.62087 12.1395 9.66103 12.1228 9.69064 12.0932C9.72025 12.0636 9.73689 12.0234 9.73689 11.9816V8.68472H10.0527C10.0946 8.68472 10.1347 8.66809 10.1643 8.63848C10.1939 8.60887 10.2106 8.56871 10.2106 8.52683C10.2106 8.48495 10.1939 8.44479 10.1643 8.41518C10.1347 8.38557 10.0946 8.36893 10.0527 8.36893Z" fill="black"/>
<path d="M4.8421 4.26367C4.80022 4.26367 4.76006 4.28031 4.73045 4.30992C4.70084 4.33953 4.6842 4.37969 4.6842 4.42157V11.9816C4.6842 12.0234 4.70084 12.0636 4.73045 12.0932C4.76006 12.1228 4.80022 12.1395 4.8421 12.1395C4.88398 12.1395 4.92414 12.1228 4.95375 12.0932C4.98336 12.0636 4.99999 12.0234 4.99999 11.9816V4.42157C4.99999 4.37969 4.98336 4.33953 4.95375 4.30992C4.92414 4.28031 4.88398 4.26367 4.8421 4.26367Z" fill="black"/>
<path d="M6.02636 1.89525C6.06824 1.89525 6.1084 1.87862 6.13801 1.84901C6.16762 1.81939 6.18426 1.77923 6.18426 1.73736C6.18426 1.69548 6.16762 1.65532 6.13801 1.62571C6.1084 1.5961 6.06824 1.57946 6.02636 1.57946C5.75668 1.57849 5.49229 1.5046 5.26118 1.36562C5.03007 1.22664 4.84085 1.02774 4.71356 0.789989H7.66531C7.70719 0.789989 7.74735 0.773353 7.77696 0.743742C7.80657 0.714131 7.8232 0.67397 7.8232 0.632094C7.8232 0.590218 7.80657 0.550056 7.77696 0.520445C7.74735 0.490834 7.70719 0.474199 7.66531 0.474199H4.58576C4.54823 0.345906 4.52825 0.21312 4.52636 0.0794622C4.52636 -0.318363 4.6844 -0.699893 4.9657 -0.981198C5.24701 -1.2625 5.62854 -1.42054 6.02636 -1.42054C6.42419 -1.42054 6.80572 -1.2625 7.08702 -0.981198C7.36833 -0.699893 7.52636 -0.318363 7.52636 0.0794622C7.52636 0.121338 7.543 0.1615 7.57261 0.191111C7.60222 0.220722 7.64238 0.237357 7.68426 0.237357C7.72613 0.237357 7.76629 0.220722 7.7959 0.191111C7.82552 0.1615 7.84215 0.121338 7.84215 0.0794622C7.84215 -0.279667 7.73566 -0.630731 7.53614 -0.929336C7.33661 -1.22794 7.05303 -1.46068 6.72123 -1.59811C6.38944 -1.73554 6.02435 -1.7715 5.67212 -1.70144C5.31989 -1.63137 4.99635 -1.45844 4.7424 -1.20449C4.48846 -0.950552 4.31552 -0.627009 4.24546 -0.274781C4.1754 0.077448 4.21136 0.442543 4.34879 0.774335C4.48622 1.10613 4.71896 1.38971 5.01756 1.58924C5.31617 1.78876 5.66723 1.89525 6.02636 1.89525Z" fill="black"/>
<path d="M9.97375 1.89525C10.0156 1.89525 10.0558 1.87862 10.0854 1.84901C10.115 1.81939 10.1316 1.77923 10.1316 1.73736C10.1316 1.69548 10.115 1.65532 10.0854 1.62571C10.0558 1.5961 10.0156 1.57946 9.97375 1.57946C9.70407 1.57849 9.43968 1.5046 9.20857 1.36562C8.97746 1.22664 8.78824 1.02774 8.66095 0.789989H11.6127C11.6546 0.789989 11.6947 0.773353 11.7243 0.743742C11.754 0.714131 11.7706 0.67397 11.7706 0.632094C11.7706 0.590218 11.754 0.550056 11.7243 0.520445C11.6947 0.490834 11.6546 0.474199 11.6127 0.474199H8.53315C8.49562 0.345906 8.47563 0.21312 8.47375 0.0794622C8.47375 -0.318363 8.63178 -0.699893 8.91309 -0.981198C9.19439 -1.2625 9.57592 -1.42054 9.97375 -1.42054C10.3716 -1.42054 10.7531 -1.2625 11.0344 -0.981198C11.3157 -0.699893 11.4737 -0.318363 11.4737 0.0794622C11.4737 0.121338 11.4904 0.1615 11.52 0.191111C11.5496 0.220722 11.5898 0.237357 11.6316 0.237357C11.6735 0.237357 11.7137 0.220722 11.7433 0.191111C11.7729 0.1615 11.7895 0.121338 11.7895 0.0794622C11.7895 -0.279667 11.683 -0.630731 11.4835 -0.929336C11.284 -1.22794 11.0004 -1.46068 10.6686 -1.59811C10.3368 -1.73554 9.97174 -1.7715 9.61951 -1.70144C9.26728 -1.63137 8.94373 -1.45844 8.68979 -1.20449C8.43585 -0.950552 8.26291 -0.627009 8.19285 -0.274781C8.12279 0.077448 8.15875 0.442543 8.29618 0.774335C8.43361 1.10613 8.66635 1.38971 8.96495 1.58924C9.26356 1.78876 9.61462 1.89525 9.97375 1.89525Z" fill="black"/>
<path d="M14 0.473808H12.4805C12.4429 0.345515 12.423 0.212729 12.4211 0.0790713C12.4211 -0.318753 12.5791 -0.700284 12.8604 -0.981589C13.1417 -1.26289 13.5233 -1.42093 13.9211 -1.42093C14.3189 -1.42093 14.7004 -1.26289 14.9817 -0.981589C15.263 -0.700284 15.4211 -0.318753 15.4211 0.0790713C15.4211 0.120948 15.4377 0.161109 15.4673 0.19072C15.4969 0.220331 15.5371 0.236966 15.579 0.236966C15.6208 0.236966 15.661 0.220331 15.6906 0.19072C15.7202 0.161109 15.7369 0.120948 15.7369 0.0790713C15.7369 -0.280058 15.6304 -0.631122 15.4309 -0.929727C15.2313 -1.22833 14.9477 -1.46107 14.6159 -1.5985C14.2842 -1.73593 13.9191 -1.77189 13.5668 -1.70183C13.2146 -1.63177 12.8911 -1.45883 12.6371 -1.20489C12.3832 -0.950943 12.2102 -0.6274 12.1402 -0.275172C12.0701 0.0770571 12.1061 0.442152 12.2435 0.773944C12.3809 1.10574 12.6137 1.38932 12.9123 1.58885C13.2109 1.78837 13.5619 1.89486 13.9211 1.89486C13.963 1.89486 14.0031 1.87823 14.0327 1.84861C14.0623 1.819 14.079 1.77884 14.079 1.73697C14.079 1.69509 14.0623 1.65493 14.0327 1.62532C14.0031 1.59571 13.963 1.57907 13.9211 1.57907C13.6514 1.5781 13.387 1.50421 13.1559 1.36523C12.9248 1.22625 12.7356 1.02735 12.6083 0.789598H14C14.2586 0.789918 14.5122 0.860755 14.7335 0.994484C14.9549 1.12821 15.1355 1.31977 15.2561 1.54853C15.3647 1.75229 15.4214 1.97973 15.4211 2.21065V2.68433H0.578973V2.21065C0.579148 1.9202 0.668986 1.63689 0.836215 1.39942C1.17184 1.71745 1.6166 1.89476 2.07897 1.89486C2.12085 1.89486 2.16101 1.87823 2.19062 1.84861C2.22023 1.819 2.23687 1.77884 2.23687 1.73697C2.23687 1.69509 2.22023 1.65493 2.19062 1.62532C2.16101 1.59571 2.12085 1.57907 2.07897 1.57907C1.6945 1.5785 1.3251 1.42951 1.04783 1.16318C1.30731 0.923914 1.64707 0.790617 2.00003 0.789598H3.75582C3.79769 0.789598 3.83785 0.772962 3.86746 0.743351C3.89707 0.71374 3.91371 0.673579 3.91371 0.631703C3.91371 0.589827 3.89707 0.549665 3.86746 0.520054C3.83785 0.490443 3.79769 0.473808 3.75582 0.473808H2.00003C1.57096 0.474012 1.15733 0.633857 0.839626 0.922229C0.707593 0.72818 0.622954 0.505847 0.592519 0.273122C0.562083 0.0403956 0.586701 -0.196225 0.664392 -0.417702C0.742082 -0.639178 0.870676 -0.839326 1.03983 -1.00204C1.20898 -1.16475 1.41396 -1.28549 1.63828 -1.35454C1.8626 -1.42358 2.1 -1.43901 2.33137 -1.39957C2.56274 -1.36014 2.78163 -1.26694 2.97041 -1.12748C3.15919 -0.988026 3.31261 -0.806203 3.41831 -0.596642C3.524 -0.387082 3.57904 -0.155636 3.57897 0.0790713C3.57897 0.120948 3.59561 0.161109 3.62522 0.19072C3.65483 0.220331 3.69499 0.236966 3.73687 0.236966C3.77874 0.236966 3.81891 0.220331 3.84852 0.19072C3.87813 0.161109 3.89476 0.120948 3.89476 0.0790713C3.89547 -0.208514 3.82787 -0.492155 3.69751 -0.748498C3.56715 -1.00484 3.37776 -1.22656 3.14495 -1.39539C2.91214 -1.56421 2.64255 -1.67533 2.35839 -1.71958C2.07423 -1.76384 1.78362 -1.73996 1.51049 -1.64993C1.23737 -1.55989 0.98953 -1.40627 0.787392 -1.2017C0.585253 -0.997141 0.434595 -0.747491 0.34782 -0.473309C0.261045 -0.199127 0.240636 0.0917454 0.288274 0.375358C0.335912 0.658971 0.450233 0.927213 0.621826 1.158C0.3894 1.4597 0.263303 1.8298 0.263184 2.21065V12.0001C0.26376 12.4606 0.446934 12.902 0.77253 13.2276C1.09813 13.5532 1.53956 13.7364 2.00003 13.737H14C14.4605 13.7365 14.902 13.5534 15.2276 13.2277C15.5533 12.9021 15.7364 12.4606 15.7369 12.0001V2.21065C15.7373 1.92822 15.668 1.65004 15.5352 1.40081C15.3878 1.12128 15.167 0.887251 14.8965 0.723906C14.626 0.560562 14.316 0.474092 14 0.473808ZM0.578973 12.0001V3.00012H15.4211V8.67448H12.4112C11.9507 8.67495 11.5092 8.85809 11.1836 9.18371C10.858 9.50933 10.6749 9.95083 10.6744 10.4113V13.4212H2.00003C1.62326 13.4208 1.26205 13.2709 0.995642 13.0045C0.729232 12.7381 0.579383 12.3769 0.578973 12.0001ZM15.1978 8.99027L10.9902 13.1979V10.4113C10.9906 10.0346 11.1404 9.67335 11.4068 9.40694C11.6733 9.14053 12.0345 8.99068 12.4112 8.99027H15.1978ZM11.2134 13.4212L15.4211 9.21353V12.0001C15.4207 12.3769 15.2708 12.7381 15.0044 13.0045C14.738 13.2709 14.3768 13.4208 14 13.4212H11.2134Z" fill="black"/>
</svg>
