<svg width="22" height="22" viewBox="0 0 22 22" fill="none" xmlns="http://www.w3.org/2000/svg">
<path d="M12.133 17.1602C11.6175 17.1616 11.1069 17.0608 10.6307 16.8634C10.1545 16.6661 9.72218 16.3763 9.35879 16.0107L5.98949 12.6414C5.6251 12.2771 5.33603 11.8446 5.13881 11.3686C4.9416 10.8926 4.84009 10.3824 4.84009 9.86719C4.84009 9.35194 4.9416 8.84175 5.13881 8.36574C5.33603 7.88974 5.6251 7.45725 5.98949 7.09299C6.06696 7.01523 6.15902 6.95353 6.26038 6.91143C6.36175 6.86933 6.47043 6.84766 6.58019 6.84766C6.68996 6.84766 6.79864 6.86933 6.9 6.91143C7.00137 6.95353 7.09343 7.01523 7.17089 7.09299L8.62949 8.55049C8.78224 8.70387 8.868 8.91152 8.868 9.12799C8.868 9.34446 8.78224 9.55211 8.62949 9.70549C8.32191 10.0136 8.14916 10.4312 8.14916 10.8665C8.14916 11.3019 8.32191 11.7195 8.62949 12.0276L9.97259 13.3707C10.2806 13.6785 10.6982 13.8515 11.1336 13.8515C11.5691 13.8515 11.9867 13.6785 12.2947 13.3707C12.4481 13.2179 12.6557 13.1322 12.8722 13.1322C13.0887 13.1322 13.2963 13.2179 13.4497 13.3707L14.9072 14.8293C14.985 14.9068 15.0467 14.9988 15.0888 15.1002C15.1309 15.2015 15.1525 15.3102 15.1525 15.42C15.1525 15.5297 15.1309 15.6384 15.0888 15.7398C15.0467 15.8412 14.985 15.9332 14.9072 16.0107C14.5438 16.3763 14.1115 16.6662 13.6353 16.8635C13.1591 17.0608 12.6485 17.1617 12.133 17.1602ZM6.58019 7.24369C6.46416 7.2433 6.35267 7.28877 6.26999 7.37019C5.60855 8.03174 5.23697 8.92894 5.23697 9.86444C5.23697 10.7999 5.60855 11.6971 6.26999 12.3587L9.63929 15.7302C9.9669 16.058 10.3559 16.3181 10.7841 16.4955C11.2122 16.673 11.6712 16.7643 12.1346 16.7643C12.5981 16.7643 13.0571 16.673 13.4852 16.4955C13.9134 16.3181 14.3024 16.058 14.63 15.7302C14.6708 15.6893 14.7032 15.6408 14.7253 15.5873C14.7474 15.5339 14.7587 15.4767 14.7587 15.4189C14.7585 15.3025 14.7122 15.191 14.63 15.1087L13.1692 13.6512C13.0904 13.5725 12.9836 13.5282 12.8722 13.5282C12.7608 13.5282 12.654 13.5725 12.5752 13.6512C12.1928 14.033 11.6746 14.2474 11.1342 14.2474C10.5938 14.2474 10.0756 14.033 9.69319 13.6512L9.01999 12.9802L8.35229 12.3125C7.97076 11.93 7.75649 11.4118 7.75649 10.8715C7.75649 10.3312 7.97076 9.813 8.35229 9.43049C8.43102 9.35169 8.47524 9.24487 8.47524 9.13349C8.47524 9.0221 8.43102 8.91528 8.35229 8.83649L6.89039 7.37019C6.84967 7.32957 6.80127 7.29747 6.74801 7.27575C6.69475 7.25404 6.63771 7.24313 6.58019 7.24369Z" fill="#495058"/>
<path d="M16.6099 10.0736H16.5956C16.5433 10.07 16.4945 10.0457 16.4601 10.0061C16.4256 9.96647 16.4083 9.91481 16.4119 9.86244L16.7287 5.26774L12.134 5.58454C12.0825 5.58674 12.0321 5.56873 11.9937 5.53436C11.9552 5.49998 11.9317 5.45194 11.9281 5.40048C11.9245 5.34901 11.9412 5.29818 11.9745 5.2588C12.0078 5.21943 12.0552 5.19461 12.1065 5.18964L17.1599 4.83984L16.8112 9.88884C16.8081 9.93971 16.7854 9.98738 16.7479 10.0218C16.7103 10.0563 16.6609 10.0749 16.6099 10.0736Z" fill="#495058"/>
<path d="M10.847 11.3509C10.808 11.3508 10.7698 11.3391 10.7374 11.3173C10.7049 11.2956 10.6796 11.2647 10.6647 11.2286C10.6498 11.1925 10.6458 11.1528 10.6534 11.1144C10.661 11.0761 10.6798 11.0409 10.7073 11.0132L16.8068 4.91259C16.8253 4.89417 16.8471 4.87956 16.8712 4.86959C16.8953 4.85962 16.921 4.85449 16.9471 4.85449C16.9731 4.85449 16.9989 4.85962 17.023 4.86959C17.0471 4.87956 17.0689 4.89417 17.0873 4.91259C17.1058 4.931 17.1204 4.95287 17.1303 4.97693C17.1403 5.001 17.1454 5.02679 17.1454 5.05284C17.1454 5.07888 17.1403 5.10467 17.1303 5.12874C17.1204 5.1528 17.1058 5.17467 17.0873 5.19309L10.9867 11.2926C10.9497 11.3298 10.8995 11.3507 10.847 11.3509Z" fill="#495058"/>
</svg>
