<svg width="26" height="26" viewBox="0 0 26 26" fill="none" xmlns="http://www.w3.org/2000/svg">
<path d="M6.52599 16.5881H4.78399C3.74399 16.5881 2.88599 15.7561 2.88599 14.7421V6.55205C2.88599 5.53805 3.74399 4.70605 4.78399 4.70605H16.12C17.16 4.70605 18.018 5.53805 18.018 6.55205V8.08605H7.92999C7.17599 8.08605 6.55199 8.68405 6.55199 9.41205V16.5881H6.52599ZM4.80999 5.22605C4.05599 5.22605 3.43199 5.82405 3.43199 6.55205V14.7681C3.43199 15.4961 4.05599 16.0941 4.80999 16.0941H6.03199V9.41205C6.03199 8.39805 6.88999 7.56605 7.92999 7.56605H17.498V6.55205C17.498 5.82405 16.874 5.22605 16.12 5.22605H4.80999Z" fill="black"/>
<path d="M22.724 21.2944C22.386 21.2944 21.788 20.9564 20.618 20.2544C20.098 19.9424 19.37 19.5004 19.214 19.4744H7.90398C6.86398 19.4744 6.00598 18.6424 6.00598 17.6284V9.41241C6.00598 8.39841 6.86398 7.56641 7.90398 7.56641H19.24C20.28 7.56641 21.138 8.39841 21.138 9.41241V17.6284C21.164 17.7844 21.632 18.4604 21.97 18.9544C22.984 20.4104 23.296 20.9044 22.984 21.1904C22.932 21.2424 22.854 21.2944 22.724 21.2944ZM7.92998 8.08641C7.17598 8.08641 6.55198 8.68441 6.55198 9.41241V17.6284C6.55198 18.3564 7.17598 18.9544 7.92998 18.9544H19.24C19.5 18.9544 19.916 19.2144 20.93 19.8124C21.398 20.0984 22.126 20.5404 22.516 20.7224C22.334 20.3584 21.866 19.6824 21.58 19.2664C20.904 18.2784 20.644 17.8884 20.644 17.6544V9.41241C20.644 8.68441 20.02 8.08641 19.266 8.08641H7.92998Z" fill="black"/>
<path d="M17.238 11.5698H9.80199C9.64599 11.5698 9.54199 11.4658 9.54199 11.3098C9.54199 11.1538 9.64599 11.0498 9.80199 11.0498H17.264C17.42 11.0498 17.524 11.1538 17.524 11.3098C17.524 11.4658 17.394 11.5698 17.238 11.5698Z" fill="black"/>
<path d="M17.238 13.1304H9.80199C9.64599 13.1304 9.54199 13.0264 9.54199 12.8704C9.54199 12.7144 9.64599 12.6104 9.80199 12.6104H17.264C17.42 12.6104 17.524 12.7144 17.524 12.8704C17.524 13.0264 17.394 13.1304 17.238 13.1304Z" fill="black"/>
<path d="M17.238 14.6899H9.80199C9.64599 14.6899 9.54199 14.5859 9.54199 14.4299C9.54199 14.2739 9.64599 14.1699 9.80199 14.1699H17.264C17.42 14.1699 17.524 14.2739 17.524 14.4299C17.524 14.5859 17.394 14.6899 17.238 14.6899Z" fill="black"/>
</svg>
