<svg width="12" height="16" viewBox="0 0 12 16" fill="none" xmlns="http://www.w3.org/2000/svg">
<g clip-path="url(#clip0_1403_9401)">
<path d="M2.45447 10.4004H8.99992" stroke="#626A74" stroke-linecap="round" stroke-linejoin="round"/>
<path d="M2.45447 12.5332H8.99992" stroke="#626A74" stroke-linecap="round" stroke-linejoin="round"/>
<path d="M2.45447 8.2666H4.63629" stroke="#626A74" stroke-linecap="round" stroke-linejoin="round"/>
<path d="M8.45452 1.33302H10.5818C10.7315 1.33232 10.8799 1.36046 11.0185 1.41583C11.1571 1.47119 11.2831 1.55271 11.3895 1.65572C11.4959 1.75874 11.5804 1.88122 11.6384 2.01619C11.6963 2.15116 11.7265 2.29597 11.7273 2.44235V14.6237C11.7265 14.7701 11.6963 14.9149 11.6384 15.0498C11.5804 15.1848 11.4959 15.3073 11.3895 15.4103C11.2831 15.5133 11.1571 15.5948 11.0185 15.6502C10.8799 15.7056 10.7315 15.7337 10.5818 15.733H1.41816C1.26845 15.7337 1.12007 15.7056 0.981483 15.6502C0.842897 15.5948 0.716822 15.5133 0.610457 15.4103C0.504091 15.3073 0.419518 15.1848 0.361566 15.0498C0.303615 14.9149 0.27342 14.7701 0.272705 14.6237V2.44235C0.27342 2.29597 0.303615 2.15116 0.361566 2.01619C0.419518 1.88122 0.504091 1.75874 0.610457 1.65572C0.716822 1.55271 0.842897 1.47119 0.981483 1.41583C1.12007 1.36046 1.26845 1.33232 1.41816 1.33302H3.54543" stroke="#626A74" stroke-linecap="round" stroke-linejoin="round"/>
<path d="M7.90905 0.266602H4.09086C3.78962 0.266602 3.54541 0.505383 3.54541 0.799935V1.8666C3.54541 2.16115 3.78962 2.39993 4.09086 2.39993H7.90905C8.21029 2.39993 8.4545 2.16115 8.4545 1.8666V0.799935C8.4545 0.505383 8.21029 0.266602 7.90905 0.266602Z" stroke="#626A74" stroke-linecap="round" stroke-linejoin="round"/>
</g>
<defs>
<clipPath id="clip0_1403_9401">
<rect width="12" height="16" fill="white"/>
</clipPath>
</defs>
</svg>
