<svg width="15" height="12" viewBox="0 0 15 12" fill="none" xmlns="http://www.w3.org/2000/svg">
<path d="M13.5625 0H0.96875C0.711898 0.000250065 0.465638 0.102395 0.284016 0.284016C0.102395 0.465638 0.000250065 0.711898 0 0.96875V10.6562C0.000250065 10.9131 0.102395 11.1594 0.284016 11.341C0.465638 11.5226 0.711898 11.6248 0.96875 11.625H13.5625C13.8194 11.6248 14.0656 11.5226 14.2472 11.341C14.4289 11.1594 14.531 10.9131 14.5312 10.6562V0.96875C14.531 0.711898 14.4289 0.465638 14.2472 0.284016C14.0656 0.102395 13.8194 0.000250065 13.5625 0ZM0.96875 0.484375H13.5625C13.6849 0.484751 13.8026 0.531528 13.8919 0.615271C13.9811 0.699014 14.0353 0.813493 14.0435 0.935619L7.26562 6.23161L0.487741 0.935619C0.495924 0.813493 0.550114 0.699014 0.639382 0.615271C0.728649 0.531528 0.846351 0.484751 0.96875 0.484375ZM14.0469 10.6562C14.0467 10.7847 13.9956 10.9078 13.9048 10.9986C13.814 11.0894 13.6909 11.1405 13.5625 11.1406H0.96875C0.840339 11.1405 0.717237 11.0894 0.626436 10.9986C0.535636 10.9078 0.484548 10.7847 0.484375 10.6562V1.54758L7.11663 6.72991C7.15917 6.76314 7.2116 6.78119 7.26558 6.78119C7.31956 6.78119 7.37198 6.76314 7.41452 6.72991L14.0469 1.54758V10.6562Z" fill="#4C4242"/>
</svg>
