<svg width="12" height="13" viewBox="0 0 12 13" fill="none" xmlns="http://www.w3.org/2000/svg">
<path d="M1.51562 5.32812H4.69984L4.93422 5.09375H1.51562V5.32812Z" fill="#37474F"/>
<path d="M8.44984 1.57812H1.51562V1.8125H8.21547L8.44984 1.57812Z" fill="#37474F"/>
<path d="M7.27797 2.75H1.51562V2.98438H7.04359L7.27797 2.75Z" fill="#37474F"/>
<path d="M5.90148 4.12648L6.10609 3.92188H1.51562V4.15625H5.87172L5.90148 4.12648Z" fill="#37474F"/>
<path d="M11.3997 3.2593L9.91281 1.77242C9.7307 1.59008 9.49024 1.49891 9.25 1.49891C9.00977 1.49891 8.7693 1.59008 8.58719 1.77242L8.3125 2.04711L5.55344 4.80617L2.6875 7.67211L2.21875 8.14086C2.21875 8.14086 2.67766 9.32258 1.51563 10.4846L1.63281 10.6018L1.16406 11.0703C0.711016 11.5236 0.763516 11.8906 1.28125 11.8906H1.98461C2.11398 11.8906 2.29281 11.8166 2.38445 11.7249L2.57031 11.5393L2.6875 11.6565C3.33672 11.0073 3.99203 10.8641 4.44414 10.8641C4.80109 10.8641 5.03125 10.9534 5.03125 10.9534L5.5 10.4846L8.43086 7.55375L10.1875 5.79711V12.5938H0.34375V0.40625H10.1875V1.7157L10.4219 1.95008V0.171875H0.109375V12.8281H10.4219V5.56273L11.125 4.85961L11.3997 4.58492C11.7644 4.22023 11.7644 3.62398 11.3997 3.2593ZM2.21875 11.5592C2.17164 11.6063 2.05117 11.6562 1.98461 11.6562H1.28125C1.13313 11.6562 1.09211 11.6192 1.09094 11.6192C1.08414 11.5977 1.105 11.461 1.32977 11.2362L1.79852 10.7675L2.40461 11.3736L2.21875 11.5592ZM4.96398 10.6892C4.8468 10.6606 4.66774 10.6297 4.44414 10.6297C3.99883 10.6297 3.3482 10.756 2.69289 11.3302L1.84188 10.4792C2.6875 9.51617 2.57172 8.56977 2.48289 8.20812L2.6875 8.00352L5.16859 10.4846L4.96398 10.6892ZM5.3343 10.3189L2.8532 7.83781L8.3125 2.37852L10.7936 4.85961L5.3343 10.3189ZM11.234 4.41922L10.9593 4.69391L8.4782 2.21281L8.75289 1.93813C8.88484 1.80617 9.06133 1.73328 9.25 1.73328C9.43867 1.73328 9.61516 1.80617 9.74711 1.93813L11.234 3.425C11.5082 3.69922 11.5082 4.145 11.234 4.41922Z" fill="#37474F"/>
<path d="M10.2703 4.69307L10.1046 4.52734L5.04134 9.59062L5.20706 9.75635L10.2703 4.69307Z" fill="#37474F"/>
</svg>
