<svg width="14" height="14" viewBox="0 0 14 14" fill="none" xmlns="http://www.w3.org/2000/svg">
<path d="M7.00175 13.5625C5.747 13.5625 4.53162 13.2077 3.47988 12.5357L1.14012 13.2834C1.06181 13.3083 0.975625 13.2873 0.917437 13.2287C0.859687 13.1701 0.839563 13.0834 0.86625 13.0056L1.62094 10.7542C0.846562 9.65169 0.4375 8.35625 0.4375 7C0.4375 5.21675 1.14275 3.54769 2.42331 2.30037C2.5095 2.21637 2.64819 2.21813 2.73263 2.30431C2.81662 2.39094 2.81488 2.52962 2.72825 2.61363C1.53344 3.77825 0.875 5.33575 0.875 7C0.875 8.30113 1.27837 9.54231 2.04094 10.5893C2.0825 10.6466 2.09388 10.7205 2.07113 10.7879L1.41838 12.7356L3.44531 12.0877C3.50831 12.0671 3.57744 12.0772 3.633 12.1135C4.63269 12.775 5.79775 13.125 7.00175 13.125C10.3784 13.125 13.125 10.3775 13.125 7C13.125 3.62294 10.3784 0.875 7.00175 0.875H7.00044C6.05237 0.875 5.14631 1.08544 4.30369 1.50019C4.19519 1.55312 4.06438 1.50894 4.011 1.40087C3.95763 1.29281 4.00181 1.16113 4.11075 1.10775C5.01375 0.66325 5.98588 0.4375 6.99825 0.4375C10.619 0.4375 13.5625 3.38144 13.5625 7C13.5625 10.6186 10.619 13.5625 7.00175 13.5625Z" fill="#263238"/>
<path d="M9.01333 10.7156C8.57102 10.7156 7.95371 10.5449 7.07127 10.1792C5.91933 9.7023 4.77746 8.70305 3.85564 7.36649L3.82283 7.31968C3.51833 6.90362 3.02527 6.10649 3.02527 5.27437C3.02527 4.29918 3.51308 3.80437 3.72177 3.59305C3.91821 3.39137 4.21177 3.28418 4.54164 3.28418C4.62477 3.28418 4.69914 3.28812 4.76696 3.29205C5.04477 3.30299 5.20577 3.37299 5.35889 3.73918L5.51771 4.12418C5.68571 4.53149 5.89264 5.03418 5.92502 5.10199C5.96089 5.17593 6.06983 5.40299 5.94864 5.63924C5.88389 5.77749 5.82046 5.85055 5.73339 5.95118C5.67214 6.02162 5.63146 6.06537 5.58989 6.10912C5.54177 6.16074 5.49277 6.21149 5.44377 6.27318C5.35933 6.37205 5.35933 6.37205 5.38777 6.42149C5.54964 6.69493 5.89396 7.21993 6.37346 7.64649C6.99558 8.19993 7.49827 8.40337 7.73977 8.50137L7.79971 8.52587C7.86314 8.55212 7.94321 8.57093 8.00314 8.50749C8.11164 8.39068 8.24902 8.19862 8.39427 7.99518L8.48133 7.87312C8.63402 7.65743 8.82214 7.61193 8.95296 7.61193C9.02952 7.61193 9.10914 7.62724 9.19052 7.65787C9.39396 7.72874 10.4645 8.26205 10.4755 8.2673L10.5783 8.31762C10.7314 8.39112 10.8521 8.4493 10.9213 8.57093C11.0215 8.74505 10.9821 9.2018 10.8298 9.63274C10.6474 10.1486 9.96927 10.5515 9.42414 10.6687C9.31564 10.6915 9.18658 10.7156 9.01333 10.7156ZM4.54121 3.72168C4.33471 3.72168 4.14658 3.7838 4.04946 3.88312C3.84777 4.08787 3.46233 4.47855 3.46233 5.27437C3.46233 5.79105 3.71827 6.43724 4.16452 7.04668L4.21527 7.11887C5.08939 8.38674 6.16302 9.33043 7.23796 9.77537C8.06614 10.1188 8.63008 10.2785 9.01289 10.2785C9.14414 10.2785 9.24171 10.2601 9.33096 10.2413C9.75664 10.1494 10.2926 9.83487 10.4155 9.48705C10.5485 9.11212 10.5459 8.8238 10.5301 8.76649C10.5293 8.78005 10.4505 8.74287 10.3871 8.71224L10.2781 8.65887C9.97146 8.5053 9.17871 8.11812 9.04002 8.06955C9.00327 8.05555 8.97527 8.04987 8.95164 8.04987C8.93196 8.04987 8.89127 8.04987 8.83614 8.12774L8.74864 8.25024C8.59508 8.46549 8.45027 8.66849 8.32164 8.80674C8.15671 8.98305 7.87364 9.03205 7.62996 8.93055L7.57439 8.9078C7.33071 8.80937 6.75977 8.57837 6.08121 7.97462C5.55796 7.50824 5.18477 6.9408 5.00889 6.64374C4.82383 6.3248 5.01152 6.10518 5.10164 5.99974C5.15896 5.92843 5.21496 5.86937 5.27096 5.80987C5.30771 5.77093 5.34446 5.73199 5.38208 5.68824C5.48052 5.57493 5.51289 5.5373 5.55533 5.44674C5.56802 5.4218 5.57502 5.38637 5.52952 5.29187C5.49627 5.22187 5.28364 4.70824 5.11258 4.29174L4.95421 3.90805C4.88202 3.7348 4.88202 3.7348 4.74464 3.72955C4.68164 3.72518 4.61514 3.72168 4.54121 3.72168Z" fill="#263238"/>
<path d="M3.28125 1.96875C3.40206 1.96875 3.5 1.87081 3.5 1.75C3.5 1.62919 3.40206 1.53125 3.28125 1.53125C3.16044 1.53125 3.0625 1.62919 3.0625 1.75C3.0625 1.87081 3.16044 1.96875 3.28125 1.96875Z" fill="#263238"/>
</svg>
