<svg width="658" height="210" viewBox="0 0 658 210" fill="none" xmlns="http://www.w3.org/2000/svg">
<g clip-path="url(#clip0_1_2)">
<path d="M53.418 156H13.1836V16.1562H53.418V156ZM254.004 118.793C254.004 125.303 251.66 131.423 246.973 137.152C242.35 142.882 236.816 147.504 230.371 151.02C223.926 154.47 218.424 156.195 213.867 156.195H76.2695V69.9648H116.602V121.82H190.43C198.307 121.82 204.167 119.639 208.008 115.277C211.914 110.85 213.867 105.284 213.867 98.5781V70.1602C213.737 65.9935 212.728 62.3477 210.84 59.2227C209.017 56.0326 206.25 53.526 202.539 51.7031C198.893 49.8802 194.401 48.9688 189.062 48.9688H75.3906V16.1562H211.426C219.434 16.1562 226.693 18.4349 233.203 22.9922C239.779 27.5495 244.889 33.0508 248.535 39.4961C252.181 45.8763 254.004 51.5729 254.004 56.5859V118.793ZM463.867 156.195H421.875V146.43C420.768 148.839 418.555 151.085 415.234 153.168C411.914 155.186 408.919 156.195 406.25 156.195H292.48C289.421 156.195 286.328 155.414 283.203 153.852C280.143 152.224 277.637 149.978 275.684 147.113C273.73 144.249 272.721 141.026 272.656 137.445C272.591 130.544 272.493 121.82 272.363 111.273C272.298 100.727 272.266 95.1602 272.266 94.5742C272.266 86.6966 274.349 80.5117 278.516 76.0195C282.747 71.4622 287.663 69.1836 293.262 69.1836H400.879C405.827 69.1836 410.156 70.4531 413.867 72.9922C417.578 75.5312 420.247 78.0703 421.875 80.6094V67.8164C421.875 65.1471 421.061 62.4453 419.434 59.7109C417.871 56.9115 415.625 54.6003 412.695 52.7773C409.766 50.9544 406.348 50.043 402.441 50.043H273.633V16.1562H418.848C424.967 16.1562 430.762 17.6536 436.23 20.6484C441.699 23.6432 446.517 27.5495 450.684 32.3672C454.85 37.1198 458.073 42.0677 460.352 47.2109C462.695 52.3542 463.867 56.944 463.867 60.9805V156.195ZM413.867 112.641C413.867 110.883 413.216 109.288 411.914 107.855C410.612 106.358 408.984 105.186 407.031 104.34C405.143 103.428 403.613 102.973 402.441 102.973H323.047C319.401 102.973 316.862 104.21 315.43 106.684C313.997 109.158 313.281 111.078 313.281 112.445C313.281 115.31 314.193 117.621 316.016 119.379C317.904 121.137 319.792 122.016 321.68 122.016H404.688C406.51 122.016 408.496 121.072 410.645 119.184C412.793 117.23 413.867 115.049 413.867 112.641ZM640.039 156.195H531.836C520.638 156.195 511.296 153.884 503.809 149.262C496.322 144.639 490.885 139.138 487.5 132.758C484.115 126.312 482.422 120.258 482.422 114.594V55.2188C482.422 48.8385 484.603 42.6211 488.965 36.5664C493.327 30.5117 498.535 25.5964 504.59 21.8203C510.645 18.0443 515.723 16.1562 519.824 16.1562H639.258V48.9688H545.801C542.285 48.9688 538.77 50.043 535.254 52.1914C531.803 54.3398 528.971 57.0091 526.758 60.1992C524.544 63.3893 523.438 66.3841 523.438 69.1836V101.996C523.438 105.121 524.284 108.181 525.977 111.176C527.669 114.171 530.111 116.677 533.301 118.695C536.491 120.648 540.007 121.625 543.848 121.625H640.039V156.195Z" fill="#0F52BA"/>
<path d="M15.937 192V168.57H18.247V192H15.937ZM190.573 192V168.57H198.526C201.012 168.57 203.08 169.098 204.73 170.154C206.402 171.188 207.656 172.596 208.492 174.378C209.328 176.138 209.746 178.096 209.746 180.252C209.746 182.628 209.284 184.696 208.36 186.456C207.458 188.216 206.16 189.58 204.466 190.548C202.794 191.516 200.814 192 198.526 192H190.573ZM207.436 180.252C207.436 178.382 207.084 176.721 206.38 175.269C205.698 173.817 204.697 172.684 203.377 171.87C202.057 171.034 200.44 170.616 198.526 170.616H192.883V189.954H198.526C200.462 189.954 202.09 189.525 203.41 188.667C204.73 187.809 205.731 186.654 206.413 185.202C207.095 183.728 207.436 182.078 207.436 180.252ZM327.77 168.57H329.717L339.452 192H337.01L333.974 184.674H323.447L320.444 192H317.969L327.77 168.57ZM333.446 182.859L328.727 171.276L323.942 182.859H333.446ZM460.305 180.12C460.305 178.69 460.547 177.293 461.031 175.929C461.537 174.543 462.263 173.289 463.209 172.167C464.155 171.023 465.321 170.121 466.707 169.461C468.093 168.779 469.666 168.438 471.426 168.438C473.516 168.438 475.298 168.922 476.772 169.89C478.268 170.836 479.368 172.057 480.072 173.553L478.257 174.675C477.751 173.641 477.113 172.827 476.343 172.233C475.573 171.617 474.748 171.177 473.868 170.913C473.01 170.649 472.152 170.517 471.294 170.517C469.886 170.517 468.643 170.803 467.565 171.375C466.487 171.925 465.574 172.673 464.826 173.619C464.1 174.543 463.55 175.588 463.176 176.754C462.802 177.898 462.615 179.064 462.615 180.252C462.615 181.55 462.835 182.793 463.275 183.981C463.715 185.169 464.331 186.225 465.123 187.149C465.915 188.051 466.839 188.777 467.895 189.327C468.973 189.855 470.139 190.119 471.393 190.119C472.273 190.119 473.175 189.965 474.099 189.657C475.023 189.349 475.881 188.876 476.673 188.238C477.487 187.6 478.136 186.775 478.62 185.763L480.534 186.753C480.05 187.919 479.302 188.909 478.29 189.723C477.278 190.537 476.145 191.153 474.891 191.571C473.659 191.989 472.449 192.198 471.261 192.198C469.655 192.198 468.181 191.857 466.839 191.175C465.497 190.471 464.331 189.547 463.341 188.403C462.373 187.237 461.625 185.939 461.097 184.509C460.569 183.057 460.305 181.594 460.305 180.12Z" fill="#0F52BA"/>
<path d="M38.1145 192H35.8705V182.397C35.8705 180.373 35.5735 178.899 34.9795 177.975C34.3855 177.029 33.4505 176.556 32.1745 176.556C31.2945 176.556 30.4255 176.776 29.5675 177.216C28.7095 177.634 27.9505 178.217 27.2905 178.965C26.6525 179.691 26.1905 180.527 25.9045 181.473V192H23.6605V174.807H25.7065V178.701C26.1685 177.865 26.7735 177.139 27.5215 176.523C28.2695 175.885 29.1165 175.39 30.0625 175.038C31.0085 174.686 31.9875 174.51 32.9995 174.51C33.9455 174.51 34.7485 174.686 35.4085 175.038C36.0685 175.39 36.5965 175.896 36.9925 176.556C37.3885 177.194 37.6745 177.975 37.8505 178.899C38.0265 179.801 38.1145 180.813 38.1145 181.935V192ZM50.9887 191.175C50.8127 191.241 50.5377 191.362 50.1637 191.538C49.7897 191.714 49.3387 191.868 48.8107 192C48.2827 192.132 47.7107 192.198 47.0947 192.198C46.4567 192.198 45.8517 192.077 45.2797 191.835C44.7297 191.593 44.2897 191.23 43.9597 190.746C43.6297 190.24 43.4647 189.624 43.4647 188.898V176.589H41.0887V174.807H43.4647V168.999H45.7087V174.807H49.6687V176.589H45.7087V188.271C45.7527 188.887 45.9727 189.349 46.3687 189.657C46.7867 189.965 47.2597 190.119 47.7877 190.119C48.4037 190.119 48.9647 190.02 49.4707 189.822C49.9767 189.602 50.2847 189.448 50.3947 189.36L50.9887 191.175ZM60.9273 192.33C59.6953 192.33 58.5513 192.099 57.4953 191.637C56.4393 191.153 55.5263 190.504 54.7563 189.69C53.9863 188.854 53.3813 187.897 52.9413 186.819C52.5233 185.741 52.3143 184.586 52.3143 183.354C52.3143 181.748 52.6773 180.274 53.4033 178.932C54.1513 177.59 55.1743 176.523 56.4723 175.731C57.7703 174.917 59.2443 174.51 60.8943 174.51C62.5883 174.51 64.0623 174.917 65.3163 175.731C66.5923 176.545 67.5933 177.623 68.3193 178.965C69.0453 180.285 69.4083 181.737 69.4083 183.321C69.4083 183.497 69.4083 183.673 69.4083 183.849C69.4083 184.003 69.3973 184.124 69.3753 184.212H54.6573C54.7673 185.444 55.1083 186.544 55.6803 187.512C56.2743 188.458 57.0333 189.217 57.9573 189.789C58.9033 190.339 59.9263 190.614 61.0263 190.614C62.1483 190.614 63.2043 190.328 64.1943 189.756C65.2063 189.184 65.9103 188.436 66.3063 187.512L68.2533 188.04C67.9013 188.854 67.3623 189.591 66.6363 190.251C65.9103 190.911 65.0523 191.428 64.0623 191.802C63.0943 192.154 62.0493 192.33 60.9273 192.33ZM54.5913 182.595H67.2963C67.2083 181.341 66.8673 180.241 66.2733 179.295C65.7013 178.349 64.9423 177.612 63.9963 177.084C63.0723 176.534 62.0493 176.259 60.9273 176.259C59.8053 176.259 58.7823 176.534 57.8583 177.084C56.9343 177.612 56.1753 178.36 55.5813 179.328C55.0093 180.274 54.6793 181.363 54.5913 182.595ZM79.7675 192.231C78.6015 192.231 77.5235 191.989 76.5335 191.505C75.5435 191.021 74.6855 190.372 73.9595 189.558C73.2555 188.722 72.7055 187.776 72.3095 186.72C71.9135 185.664 71.7155 184.575 71.7155 183.453C71.7155 182.243 71.9025 181.11 72.2765 180.054C72.6725 178.976 73.2225 178.019 73.9265 177.183C74.6525 176.347 75.4995 175.698 76.4675 175.236C77.4355 174.752 78.5135 174.51 79.7015 174.51C81.1755 174.51 82.4515 174.884 83.5295 175.632C84.6295 176.38 85.5535 177.304 86.3015 178.404V174.807H88.3145V192.066C88.3145 193.65 87.9295 194.981 87.1595 196.059C86.4115 197.159 85.3885 197.984 84.0905 198.534C82.8145 199.084 81.4175 199.359 79.8995 199.359C77.9415 199.359 76.3575 199.007 75.1475 198.303C73.9375 197.599 72.9475 196.653 72.1775 195.465L73.5635 194.376C74.2455 195.454 75.1475 196.257 76.2695 196.785C77.4135 197.313 78.6235 197.577 79.8995 197.577C81.0215 197.577 82.0445 197.368 82.9685 196.95C83.9145 196.554 84.6625 195.949 85.2125 195.135C85.7845 194.321 86.0705 193.298 86.0705 192.066V188.667C85.4105 189.745 84.5085 190.614 83.3645 191.274C82.2205 191.912 81.0215 192.231 79.7675 192.231ZM80.3945 190.35C81.0765 190.35 81.7255 190.229 82.3415 189.987C82.9795 189.745 83.5625 189.426 84.0905 189.03C84.6185 188.612 85.0585 188.15 85.4105 187.644C85.7625 187.138 85.9825 186.621 86.0705 186.093V180.78C85.7405 179.944 85.2675 179.207 84.6515 178.569C84.0355 177.909 83.3315 177.403 82.5395 177.051C81.7695 176.677 80.9665 176.49 80.1305 176.49C79.1625 176.49 78.2935 176.699 77.5235 177.117C76.7755 177.513 76.1375 178.052 75.6095 178.734C75.1035 179.394 74.7075 180.142 74.4215 180.978C74.1355 181.814 73.9925 182.65 73.9925 183.486C73.9925 184.41 74.1575 185.29 74.4875 186.126C74.8175 186.94 75.2685 187.677 75.8405 188.337C76.4345 188.975 77.1165 189.47 77.8865 189.822C78.6785 190.174 79.5145 190.35 80.3945 190.35ZM101.85 176.787C100.354 176.831 99.0339 177.249 97.8899 178.041C96.7679 178.833 95.9759 179.922 95.5139 181.308V192H93.2699V174.807H95.3819V178.932C95.9759 177.722 96.7569 176.743 97.7249 175.995C98.7149 175.247 99.7599 174.829 100.86 174.741C101.08 174.719 101.267 174.708 101.421 174.708C101.597 174.708 101.74 174.719 101.85 174.741V176.787ZM103.389 187.05C103.389 185.972 103.697 185.048 104.313 184.278C104.929 183.486 105.776 182.881 106.854 182.463C107.954 182.023 109.219 181.803 110.649 181.803C111.485 181.803 112.354 181.869 113.256 182.001C114.158 182.133 114.961 182.331 115.665 182.595V181.143C115.665 179.691 115.236 178.536 114.378 177.678C113.52 176.82 112.332 176.391 110.814 176.391C109.89 176.391 108.977 176.567 108.075 176.919C107.195 177.249 106.271 177.744 105.303 178.404L104.445 176.82C105.567 176.05 106.667 175.478 107.745 175.104C108.823 174.708 109.923 174.51 111.045 174.51C113.157 174.51 114.829 175.115 116.061 176.325C117.293 177.535 117.909 179.207 117.909 181.341V189.294C117.909 189.602 117.975 189.833 118.107 189.987C118.239 190.119 118.448 190.196 118.734 190.218V192C118.492 192.022 118.283 192.044 118.107 192.066C117.931 192.088 117.799 192.088 117.711 192.066C117.161 192.044 116.743 191.868 116.457 191.538C116.171 191.208 116.017 190.856 115.995 190.482L115.962 189.228C115.192 190.218 114.191 190.988 112.959 191.538C111.727 192.066 110.473 192.33 109.197 192.33C108.097 192.33 107.096 192.099 106.194 191.637C105.314 191.153 104.621 190.515 104.115 189.723C103.631 188.909 103.389 188.018 103.389 187.05ZM114.906 188.37C115.148 188.062 115.335 187.765 115.467 187.479C115.599 187.193 115.665 186.94 115.665 186.72V184.212C114.917 183.926 114.136 183.706 113.322 183.552C112.53 183.398 111.727 183.321 110.913 183.321C109.307 183.321 108.009 183.64 107.019 184.278C106.029 184.916 105.534 185.785 105.534 186.885C105.534 187.523 105.699 188.128 106.029 188.7C106.359 189.25 106.843 189.712 107.481 190.086C108.119 190.438 108.867 190.614 109.725 190.614C110.803 190.614 111.804 190.405 112.728 189.987C113.674 189.569 114.4 189.03 114.906 188.37ZM130.878 191.175C130.702 191.241 130.427 191.362 130.053 191.538C129.679 191.714 129.228 191.868 128.7 192C128.172 192.132 127.6 192.198 126.984 192.198C126.346 192.198 125.741 192.077 125.169 191.835C124.619 191.593 124.179 191.23 123.849 190.746C123.519 190.24 123.354 189.624 123.354 188.898V176.589H120.978V174.807H123.354V168.999H125.598V174.807H129.558V176.589H125.598V188.271C125.642 188.887 125.862 189.349 126.258 189.657C126.676 189.965 127.149 190.119 127.677 190.119C128.293 190.119 128.854 190.02 129.36 189.822C129.866 189.602 130.174 189.448 130.284 189.36L130.878 191.175ZM140.817 192.33C139.585 192.33 138.441 192.099 137.385 191.637C136.329 191.153 135.416 190.504 134.646 189.69C133.876 188.854 133.271 187.897 132.831 186.819C132.413 185.741 132.204 184.586 132.204 183.354C132.204 181.748 132.567 180.274 133.293 178.932C134.041 177.59 135.064 176.523 136.362 175.731C137.66 174.917 139.134 174.51 140.784 174.51C142.478 174.51 143.952 174.917 145.206 175.731C146.482 176.545 147.483 177.623 148.209 178.965C148.935 180.285 149.298 181.737 149.298 183.321C149.298 183.497 149.298 183.673 149.298 183.849C149.298 184.003 149.287 184.124 149.265 184.212H134.547C134.657 185.444 134.998 186.544 135.57 187.512C136.164 188.458 136.923 189.217 137.847 189.789C138.793 190.339 139.816 190.614 140.916 190.614C142.038 190.614 143.094 190.328 144.084 189.756C145.096 189.184 145.8 188.436 146.196 187.512L148.143 188.04C147.791 188.854 147.252 189.591 146.526 190.251C145.8 190.911 144.942 191.428 143.952 191.802C142.984 192.154 141.939 192.33 140.817 192.33ZM134.481 182.595H147.186C147.098 181.341 146.757 180.241 146.163 179.295C145.591 178.349 144.832 177.612 143.886 177.084C142.962 176.534 141.939 176.259 140.817 176.259C139.695 176.259 138.672 176.534 137.748 177.084C136.824 177.612 136.065 178.36 135.471 179.328C134.899 180.274 134.569 181.363 134.481 182.595ZM151.605 183.453C151.605 181.825 151.935 180.34 152.595 178.998C153.277 177.634 154.212 176.545 155.4 175.731C156.588 174.917 157.941 174.51 159.459 174.51C160.889 174.51 162.165 174.895 163.287 175.665C164.431 176.413 165.322 177.326 165.96 178.404V167.91H168.204V189.294C168.204 189.602 168.27 189.833 168.402 189.987C168.534 190.119 168.732 190.196 168.996 190.218V192C168.556 192.066 168.215 192.088 167.973 192.066C167.511 192.044 167.104 191.857 166.752 191.505C166.4 191.153 166.224 190.768 166.224 190.35V188.667C165.542 189.789 164.618 190.68 163.452 191.34C162.286 192 161.076 192.33 159.822 192.33C158.634 192.33 157.534 192.088 156.522 191.604C155.532 191.12 154.663 190.46 153.915 189.624C153.189 188.788 152.617 187.842 152.199 186.786C151.803 185.708 151.605 184.597 151.605 183.453ZM165.96 186.093V180.78C165.674 179.988 165.212 179.273 164.574 178.635C163.936 177.975 163.21 177.458 162.396 177.084C161.604 176.688 160.812 176.49 160.02 176.49C159.096 176.49 158.26 176.688 157.512 177.084C156.764 177.458 156.115 177.975 155.565 178.635C155.037 179.295 154.63 180.043 154.344 180.879C154.058 181.715 153.915 182.573 153.915 183.453C153.915 184.377 154.069 185.257 154.377 186.093C154.707 186.929 155.169 187.677 155.763 188.337C156.357 188.975 157.039 189.47 157.809 189.822C158.579 190.174 159.415 190.35 160.317 190.35C160.889 190.35 161.483 190.24 162.099 190.02C162.715 189.8 163.298 189.503 163.848 189.129C164.42 188.733 164.893 188.271 165.267 187.743C165.641 187.215 165.872 186.665 165.96 186.093ZM221.126 192.33C219.894 192.33 218.75 192.099 217.694 191.637C216.638 191.153 215.725 190.504 214.955 189.69C214.185 188.854 213.58 187.897 213.14 186.819C212.722 185.741 212.513 184.586 212.513 183.354C212.513 181.748 212.876 180.274 213.602 178.932C214.35 177.59 215.373 176.523 216.671 175.731C217.969 174.917 219.443 174.51 221.093 174.51C222.787 174.51 224.261 174.917 225.515 175.731C226.791 176.545 227.792 177.623 228.518 178.965C229.244 180.285 229.607 181.737 229.607 183.321C229.607 183.497 229.607 183.673 229.607 183.849C229.607 184.003 229.596 184.124 229.574 184.212H214.856C214.966 185.444 215.307 186.544 215.879 187.512C216.473 188.458 217.232 189.217 218.156 189.789C219.102 190.339 220.125 190.614 221.225 190.614C222.347 190.614 223.403 190.328 224.393 189.756C225.405 189.184 226.109 188.436 226.505 187.512L228.452 188.04C228.1 188.854 227.561 189.591 226.835 190.251C226.109 190.911 225.251 191.428 224.261 191.802C223.293 192.154 222.248 192.33 221.126 192.33ZM214.79 182.595H227.495C227.407 181.341 227.066 180.241 226.472 179.295C225.9 178.349 225.141 177.612 224.195 177.084C223.271 176.534 222.248 176.259 221.126 176.259C220.004 176.259 218.981 176.534 218.057 177.084C217.133 177.612 216.374 178.36 215.78 179.328C215.208 180.274 214.878 181.363 214.79 182.595ZM238.712 192.33C237.304 192.33 235.995 192.099 234.785 191.637C233.575 191.175 232.53 190.471 231.65 189.525L232.574 187.941C233.542 188.843 234.51 189.503 235.478 189.921C236.468 190.317 237.513 190.515 238.613 190.515C239.955 190.515 241.044 190.251 241.88 189.723C242.716 189.173 243.134 188.392 243.134 187.38C243.134 186.698 242.925 186.181 242.507 185.829C242.111 185.455 241.528 185.158 240.758 184.938C240.01 184.696 239.108 184.443 238.052 184.179C236.864 183.849 235.863 183.508 235.049 183.156C234.257 182.782 233.652 182.32 233.234 181.77C232.838 181.198 232.64 180.461 232.64 179.559C232.64 178.437 232.915 177.513 233.465 176.787C234.037 176.039 234.807 175.478 235.775 175.104C236.765 174.708 237.865 174.51 239.075 174.51C240.395 174.51 241.561 174.719 242.573 175.137C243.585 175.555 244.41 176.138 245.048 176.886L243.959 178.404C243.343 177.7 242.606 177.183 241.748 176.853C240.912 176.501 239.977 176.325 238.943 176.325C238.239 176.325 237.568 176.424 236.93 176.622C236.292 176.798 235.764 177.106 235.346 177.546C234.95 177.964 234.752 178.547 234.752 179.295C234.752 179.911 234.906 180.395 235.214 180.747C235.522 181.077 235.984 181.363 236.6 181.605C237.216 181.825 237.975 182.067 238.877 182.331C240.175 182.683 241.308 183.046 242.276 183.42C243.244 183.772 243.992 184.234 244.52 184.806C245.048 185.378 245.312 186.181 245.312 187.215C245.312 188.821 244.707 190.075 243.497 190.977C242.287 191.879 240.692 192.33 238.712 192.33ZM249.021 192V174.807H251.265V192H249.021ZM249.021 171.21V167.91H251.265V171.21H249.021ZM263.104 192.231C261.938 192.231 260.86 191.989 259.87 191.505C258.88 191.021 258.022 190.372 257.296 189.558C256.592 188.722 256.042 187.776 255.646 186.72C255.25 185.664 255.052 184.575 255.052 183.453C255.052 182.243 255.239 181.11 255.613 180.054C256.009 178.976 256.559 178.019 257.263 177.183C257.989 176.347 258.836 175.698 259.804 175.236C260.772 174.752 261.85 174.51 263.038 174.51C264.512 174.51 265.788 174.884 266.866 175.632C267.966 176.38 268.89 177.304 269.638 178.404V174.807H271.651V192.066C271.651 193.65 271.266 194.981 270.496 196.059C269.748 197.159 268.725 197.984 267.427 198.534C266.151 199.084 264.754 199.359 263.236 199.359C261.278 199.359 259.694 199.007 258.484 198.303C257.274 197.599 256.284 196.653 255.514 195.465L256.9 194.376C257.582 195.454 258.484 196.257 259.606 196.785C260.75 197.313 261.96 197.577 263.236 197.577C264.358 197.577 265.381 197.368 266.305 196.95C267.251 196.554 267.999 195.949 268.549 195.135C269.121 194.321 269.407 193.298 269.407 192.066V188.667C268.747 189.745 267.845 190.614 266.701 191.274C265.557 191.912 264.358 192.231 263.104 192.231ZM263.731 190.35C264.413 190.35 265.062 190.229 265.678 189.987C266.316 189.745 266.899 189.426 267.427 189.03C267.955 188.612 268.395 188.15 268.747 187.644C269.099 187.138 269.319 186.621 269.407 186.093V180.78C269.077 179.944 268.604 179.207 267.988 178.569C267.372 177.909 266.668 177.403 265.876 177.051C265.106 176.677 264.303 176.49 263.467 176.49C262.499 176.49 261.63 176.699 260.86 177.117C260.112 177.513 259.474 178.052 258.946 178.734C258.44 179.394 258.044 180.142 257.758 180.978C257.472 181.814 257.329 182.65 257.329 183.486C257.329 184.41 257.494 185.29 257.824 186.126C258.154 186.94 258.605 187.677 259.177 188.337C259.771 188.975 260.453 189.47 261.223 189.822C262.015 190.174 262.851 190.35 263.731 190.35ZM291.061 192H288.817V182.397C288.817 180.373 288.52 178.899 287.926 177.975C287.332 177.029 286.397 176.556 285.121 176.556C284.241 176.556 283.372 176.776 282.514 177.216C281.656 177.634 280.897 178.217 280.237 178.965C279.599 179.691 279.137 180.527 278.851 181.473V192H276.607V174.807H278.653V178.701C279.115 177.865 279.72 177.139 280.468 176.523C281.216 175.885 282.063 175.39 283.009 175.038C283.955 174.686 284.934 174.51 285.946 174.51C286.892 174.51 287.695 174.686 288.355 175.038C289.015 175.39 289.543 175.896 289.939 176.556C290.335 177.194 290.621 177.975 290.797 178.899C290.973 179.801 291.061 180.813 291.061 181.935V192ZM356.803 192H354.559V182.397C354.559 180.373 354.262 178.899 353.668 177.975C353.074 177.029 352.139 176.556 350.863 176.556C349.983 176.556 349.114 176.776 348.256 177.216C347.398 177.634 346.639 178.217 345.979 178.965C345.341 179.691 344.879 180.527 344.593 181.473V192H342.349V174.807H344.395V178.701C344.857 177.865 345.462 177.139 346.21 176.523C346.958 175.885 347.805 175.39 348.751 175.038C349.697 174.686 350.676 174.51 351.688 174.51C352.634 174.51 353.437 174.686 354.097 175.038C354.757 175.39 355.285 175.896 355.681 176.556C356.077 177.194 356.363 177.975 356.539 178.899C356.715 179.801 356.803 180.813 356.803 181.935V192ZM360.202 187.05C360.202 185.972 360.51 185.048 361.126 184.278C361.742 183.486 362.589 182.881 363.667 182.463C364.767 182.023 366.032 181.803 367.462 181.803C368.298 181.803 369.167 181.869 370.069 182.001C370.971 182.133 371.774 182.331 372.478 182.595V181.143C372.478 179.691 372.049 178.536 371.191 177.678C370.333 176.82 369.145 176.391 367.627 176.391C366.703 176.391 365.79 176.567 364.888 176.919C364.008 177.249 363.084 177.744 362.116 178.404L361.258 176.82C362.38 176.05 363.48 175.478 364.558 175.104C365.636 174.708 366.736 174.51 367.858 174.51C369.97 174.51 371.642 175.115 372.874 176.325C374.106 177.535 374.722 179.207 374.722 181.341V189.294C374.722 189.602 374.788 189.833 374.92 189.987C375.052 190.119 375.261 190.196 375.547 190.218V192C375.305 192.022 375.096 192.044 374.92 192.066C374.744 192.088 374.612 192.088 374.524 192.066C373.974 192.044 373.556 191.868 373.27 191.538C372.984 191.208 372.83 190.856 372.808 190.482L372.775 189.228C372.005 190.218 371.004 190.988 369.772 191.538C368.54 192.066 367.286 192.33 366.01 192.33C364.91 192.33 363.909 192.099 363.007 191.637C362.127 191.153 361.434 190.515 360.928 189.723C360.444 188.909 360.202 188.018 360.202 187.05ZM371.719 188.37C371.961 188.062 372.148 187.765 372.28 187.479C372.412 187.193 372.478 186.94 372.478 186.72V184.212C371.73 183.926 370.949 183.706 370.135 183.552C369.343 183.398 368.54 183.321 367.726 183.321C366.12 183.321 364.822 183.64 363.832 184.278C362.842 184.916 362.347 185.785 362.347 186.885C362.347 187.523 362.512 188.128 362.842 188.7C363.172 189.25 363.656 189.712 364.294 190.086C364.932 190.438 365.68 190.614 366.538 190.614C367.616 190.614 368.617 190.405 369.541 189.987C370.487 189.569 371.213 189.03 371.719 188.37ZM379.67 167.91H381.914V188.106C381.914 188.964 382.068 189.525 382.376 189.789C382.684 190.053 383.058 190.185 383.498 190.185C383.894 190.185 384.29 190.141 384.686 190.053C385.082 189.965 385.423 189.877 385.709 189.789L386.105 191.604C385.687 191.78 385.17 191.923 384.554 192.033C383.96 192.143 383.443 192.198 383.003 192.198C381.991 192.198 381.177 191.901 380.561 191.307C379.967 190.713 379.67 189.899 379.67 188.865V167.91ZM389.004 197.28C389.312 197.302 389.609 197.313 389.895 197.313C390.181 197.335 390.39 197.324 390.522 197.28C390.786 197.236 391.039 197.082 391.281 196.818C391.523 196.554 391.809 196.048 392.139 195.3C392.469 194.552 392.931 193.452 393.525 192L386.034 174.807H388.41L394.713 189.69L400.521 174.807H402.765L393.855 196.983C393.701 197.401 393.47 197.786 393.162 198.138C392.854 198.512 392.469 198.798 392.007 198.996C391.567 199.216 391.017 199.337 390.357 199.359C390.159 199.381 389.95 199.381 389.73 199.359C389.532 199.359 389.29 199.337 389.004 199.293V197.28ZM411.124 192.33C409.716 192.33 408.407 192.099 407.197 191.637C405.987 191.175 404.942 190.471 404.062 189.525L404.986 187.941C405.954 188.843 406.922 189.503 407.89 189.921C408.88 190.317 409.925 190.515 411.025 190.515C412.367 190.515 413.456 190.251 414.292 189.723C415.128 189.173 415.546 188.392 415.546 187.38C415.546 186.698 415.337 186.181 414.919 185.829C414.523 185.455 413.94 185.158 413.17 184.938C412.422 184.696 411.52 184.443 410.464 184.179C409.276 183.849 408.275 183.508 407.461 183.156C406.669 182.782 406.064 182.32 405.646 181.77C405.25 181.198 405.052 180.461 405.052 179.559C405.052 178.437 405.327 177.513 405.877 176.787C406.449 176.039 407.219 175.478 408.187 175.104C409.177 174.708 410.277 174.51 411.487 174.51C412.807 174.51 413.973 174.719 414.985 175.137C415.997 175.555 416.822 176.138 417.46 176.886L416.371 178.404C415.755 177.7 415.018 177.183 414.16 176.853C413.324 176.501 412.389 176.325 411.355 176.325C410.651 176.325 409.98 176.424 409.342 176.622C408.704 176.798 408.176 177.106 407.758 177.546C407.362 177.964 407.164 178.547 407.164 179.295C407.164 179.911 407.318 180.395 407.626 180.747C407.934 181.077 408.396 181.363 409.012 181.605C409.628 181.825 410.387 182.067 411.289 182.331C412.587 182.683 413.72 183.046 414.688 183.42C415.656 183.772 416.404 184.234 416.932 184.806C417.46 185.378 417.724 186.181 417.724 187.215C417.724 188.821 417.119 190.075 415.909 190.977C414.699 191.879 413.104 192.33 411.124 192.33ZM421.433 192V174.807H423.677V192H421.433ZM421.433 171.21V167.91H423.677V171.21H421.433ZM434.263 192.33C432.855 192.33 431.546 192.099 430.336 191.637C429.126 191.175 428.081 190.471 427.201 189.525L428.125 187.941C429.093 188.843 430.061 189.503 431.029 189.921C432.019 190.317 433.064 190.515 434.164 190.515C435.506 190.515 436.595 190.251 437.431 189.723C438.267 189.173 438.685 188.392 438.685 187.38C438.685 186.698 438.476 186.181 438.058 185.829C437.662 185.455 437.079 185.158 436.309 184.938C435.561 184.696 434.659 184.443 433.603 184.179C432.415 183.849 431.414 183.508 430.6 183.156C429.808 182.782 429.203 182.32 428.785 181.77C428.389 181.198 428.191 180.461 428.191 179.559C428.191 178.437 428.466 177.513 429.016 176.787C429.588 176.039 430.358 175.478 431.326 175.104C432.316 174.708 433.416 174.51 434.626 174.51C435.946 174.51 437.112 174.719 438.124 175.137C439.136 175.555 439.961 176.138 440.599 176.886L439.51 178.404C438.894 177.7 438.157 177.183 437.299 176.853C436.463 176.501 435.528 176.325 434.494 176.325C433.79 176.325 433.119 176.424 432.481 176.622C431.843 176.798 431.315 177.106 430.897 177.546C430.501 177.964 430.303 178.547 430.303 179.295C430.303 179.911 430.457 180.395 430.765 180.747C431.073 181.077 431.535 181.363 432.151 181.605C432.767 181.825 433.526 182.067 434.428 182.331C435.726 182.683 436.859 183.046 437.827 183.42C438.795 183.772 439.543 184.234 440.071 184.806C440.599 185.378 440.863 186.181 440.863 187.215C440.863 188.821 440.258 190.075 439.048 190.977C437.838 191.879 436.243 192.33 434.263 192.33ZM491.343 192.33C490.111 192.33 488.967 192.099 487.911 191.637C486.877 191.153 485.975 190.504 485.205 189.69C484.457 188.854 483.874 187.908 483.456 186.852C483.038 185.774 482.829 184.641 482.829 183.453C482.829 182.221 483.038 181.077 483.456 180.021C483.874 178.943 484.468 177.997 485.238 177.183C486.008 176.347 486.91 175.698 487.944 175.236C489 174.752 490.144 174.51 491.376 174.51C492.608 174.51 493.741 174.752 494.775 175.236C495.809 175.698 496.711 176.347 497.481 177.183C498.251 177.997 498.845 178.943 499.263 180.021C499.681 181.077 499.89 182.221 499.89 183.453C499.89 184.641 499.681 185.774 499.263 186.852C498.845 187.908 498.251 188.854 497.481 189.69C496.733 190.504 495.831 191.153 494.775 191.637C493.741 192.099 492.597 192.33 491.343 192.33ZM485.106 183.486C485.106 184.762 485.381 185.928 485.931 186.984C486.503 188.018 487.262 188.843 488.208 189.459C489.154 190.053 490.199 190.35 491.343 190.35C492.487 190.35 493.532 190.042 494.478 189.426C495.424 188.81 496.183 187.974 496.755 186.918C497.327 185.84 497.613 184.674 497.613 183.42C497.613 182.144 497.327 180.978 496.755 179.922C496.183 178.866 495.424 178.03 494.478 177.414C493.532 176.798 492.487 176.49 491.343 176.49C490.199 176.49 489.154 176.809 488.208 177.447C487.284 178.085 486.536 178.932 485.964 179.988C485.392 181.022 485.106 182.188 485.106 183.486ZM518.097 192H515.853V182.397C515.853 180.373 515.556 178.899 514.962 177.975C514.368 177.029 513.433 176.556 512.157 176.556C511.277 176.556 510.408 176.776 509.55 177.216C508.692 177.634 507.933 178.217 507.273 178.965C506.635 179.691 506.173 180.527 505.887 181.473V192H503.643V174.807H505.689V178.701C506.151 177.865 506.756 177.139 507.504 176.523C508.252 175.885 509.099 175.39 510.045 175.038C510.991 174.686 511.97 174.51 512.982 174.51C513.928 174.51 514.731 174.686 515.391 175.038C516.051 175.39 516.579 175.896 516.975 176.556C517.371 177.194 517.657 177.975 517.833 178.899C518.009 179.801 518.097 180.813 518.097 181.935V192ZM528.525 192.33C527.117 192.33 525.808 192.099 524.598 191.637C523.388 191.175 522.343 190.471 521.463 189.525L522.387 187.941C523.355 188.843 524.323 189.503 525.291 189.921C526.281 190.317 527.326 190.515 528.426 190.515C529.768 190.515 530.857 190.251 531.693 189.723C532.529 189.173 532.947 188.392 532.947 187.38C532.947 186.698 532.738 186.181 532.32 185.829C531.924 185.455 531.341 185.158 530.571 184.938C529.823 184.696 528.921 184.443 527.865 184.179C526.677 183.849 525.676 183.508 524.862 183.156C524.07 182.782 523.465 182.32 523.047 181.77C522.651 181.198 522.453 180.461 522.453 179.559C522.453 178.437 522.728 177.513 523.278 176.787C523.85 176.039 524.62 175.478 525.588 175.104C526.578 174.708 527.678 174.51 528.888 174.51C530.208 174.51 531.374 174.719 532.386 175.137C533.398 175.555 534.223 176.138 534.861 176.886L533.772 178.404C533.156 177.7 532.419 177.183 531.561 176.853C530.725 176.501 529.79 176.325 528.756 176.325C528.052 176.325 527.381 176.424 526.743 176.622C526.105 176.798 525.577 177.106 525.159 177.546C524.763 177.964 524.565 178.547 524.565 179.295C524.565 179.911 524.719 180.395 525.027 180.747C525.335 181.077 525.797 181.363 526.413 181.605C527.029 181.825 527.788 182.067 528.69 182.331C529.988 182.683 531.121 183.046 532.089 183.42C533.057 183.772 533.805 184.234 534.333 184.806C534.861 185.378 535.125 186.181 535.125 187.215C535.125 188.821 534.52 190.075 533.31 190.977C532.1 191.879 530.505 192.33 528.525 192.33ZM538.669 184.905V174.807H540.913V184.509C540.913 186.467 541.243 187.93 541.903 188.898C542.585 189.866 543.586 190.35 544.906 190.35C545.786 190.35 546.633 190.163 547.447 189.789C548.283 189.393 549.02 188.843 549.658 188.139C550.296 187.413 550.78 186.577 551.11 185.631V174.807H553.354V189.294C553.354 189.602 553.42 189.833 553.552 189.987C553.684 190.119 553.882 190.196 554.146 190.218V192C553.882 192.022 553.673 192.033 553.519 192.033C553.365 192.055 553.222 192.066 553.09 192.066C552.65 192.022 552.265 191.846 551.935 191.538C551.627 191.23 551.462 190.856 551.44 190.416L551.374 188.106C550.626 189.426 549.603 190.46 548.305 191.208C547.029 191.956 545.643 192.33 544.147 192.33C542.343 192.33 540.979 191.703 540.055 190.449C539.131 189.195 538.669 187.347 538.669 184.905ZM558.527 167.91H560.771V188.106C560.771 188.964 560.925 189.525 561.233 189.789C561.541 190.053 561.915 190.185 562.355 190.185C562.751 190.185 563.147 190.141 563.543 190.053C563.939 189.965 564.28 189.877 564.566 189.789L564.962 191.604C564.544 191.78 564.027 191.923 563.411 192.033C562.817 192.143 562.3 192.198 561.86 192.198C560.848 192.198 560.034 191.901 559.418 191.307C558.824 190.713 558.527 189.899 558.527 188.865V167.91ZM575.669 191.175C575.493 191.241 575.218 191.362 574.844 191.538C574.47 191.714 574.019 191.868 573.491 192C572.963 192.132 572.391 192.198 571.775 192.198C571.137 192.198 570.532 192.077 569.96 191.835C569.41 191.593 568.97 191.23 568.64 190.746C568.31 190.24 568.145 189.624 568.145 188.898V176.589H565.769V174.807H568.145V168.999H570.389V174.807H574.349V176.589H570.389V188.271C570.433 188.887 570.653 189.349 571.049 189.657C571.467 189.965 571.94 190.119 572.468 190.119C573.084 190.119 573.645 190.02 574.151 189.822C574.657 189.602 574.965 189.448 575.075 189.36L575.669 191.175ZM577.087 187.05C577.087 185.972 577.395 185.048 578.011 184.278C578.627 183.486 579.474 182.881 580.552 182.463C581.652 182.023 582.917 181.803 584.347 181.803C585.183 181.803 586.052 181.869 586.954 182.001C587.856 182.133 588.659 182.331 589.363 182.595V181.143C589.363 179.691 588.934 178.536 588.076 177.678C587.218 176.82 586.03 176.391 584.512 176.391C583.588 176.391 582.675 176.567 581.773 176.919C580.893 177.249 579.969 177.744 579.001 178.404L578.143 176.82C579.265 176.05 580.365 175.478 581.443 175.104C582.521 174.708 583.621 174.51 584.743 174.51C586.855 174.51 588.527 175.115 589.759 176.325C590.991 177.535 591.607 179.207 591.607 181.341V189.294C591.607 189.602 591.673 189.833 591.805 189.987C591.937 190.119 592.146 190.196 592.432 190.218V192C592.19 192.022 591.981 192.044 591.805 192.066C591.629 192.088 591.497 192.088 591.409 192.066C590.859 192.044 590.441 191.868 590.155 191.538C589.869 191.208 589.715 190.856 589.693 190.482L589.66 189.228C588.89 190.218 587.889 190.988 586.657 191.538C585.425 192.066 584.171 192.33 582.895 192.33C581.795 192.33 580.794 192.099 579.892 191.637C579.012 191.153 578.319 190.515 577.813 189.723C577.329 188.909 577.087 188.018 577.087 187.05ZM588.604 188.37C588.846 188.062 589.033 187.765 589.165 187.479C589.297 187.193 589.363 186.94 589.363 186.72V184.212C588.615 183.926 587.834 183.706 587.02 183.552C586.228 183.398 585.425 183.321 584.611 183.321C583.005 183.321 581.707 183.64 580.717 184.278C579.727 184.916 579.232 185.785 579.232 186.885C579.232 187.523 579.397 188.128 579.727 188.7C580.057 189.25 580.541 189.712 581.179 190.086C581.817 190.438 582.565 190.614 583.423 190.614C584.501 190.614 585.502 190.405 586.426 189.987C587.372 189.569 588.098 189.03 588.604 188.37ZM610.909 192H608.665V182.397C608.665 180.373 608.368 178.899 607.774 177.975C607.18 177.029 606.245 176.556 604.969 176.556C604.089 176.556 603.22 176.776 602.362 177.216C601.504 177.634 600.745 178.217 600.085 178.965C599.447 179.691 598.985 180.527 598.699 181.473V192H596.455V174.807H598.501V178.701C598.963 177.865 599.568 177.139 600.316 176.523C601.064 175.885 601.911 175.39 602.857 175.038C603.803 174.686 604.782 174.51 605.794 174.51C606.74 174.51 607.543 174.686 608.203 175.038C608.863 175.39 609.391 175.896 609.787 176.556C610.183 177.194 610.469 177.975 610.645 178.899C610.821 179.801 610.909 180.813 610.909 181.935V192ZM623.784 191.175C623.608 191.241 623.333 191.362 622.959 191.538C622.585 191.714 622.134 191.868 621.606 192C621.078 192.132 620.506 192.198 619.89 192.198C619.252 192.198 618.647 192.077 618.075 191.835C617.525 191.593 617.085 191.23 616.755 190.746C616.425 190.24 616.26 189.624 616.26 188.898V176.589H613.884V174.807H616.26V168.999H618.504V174.807H622.464V176.589H618.504V188.271C618.548 188.887 618.768 189.349 619.164 189.657C619.582 189.965 620.055 190.119 620.583 190.119C621.199 190.119 621.76 190.02 622.266 189.822C622.772 189.602 623.08 189.448 623.19 189.36L623.784 191.175ZM632.23 192.33C630.822 192.33 629.513 192.099 628.303 191.637C627.093 191.175 626.048 190.471 625.168 189.525L626.092 187.941C627.06 188.843 628.028 189.503 628.996 189.921C629.986 190.317 631.031 190.515 632.131 190.515C633.473 190.515 634.562 190.251 635.398 189.723C636.234 189.173 636.652 188.392 636.652 187.38C636.652 186.698 636.443 186.181 636.025 185.829C635.629 185.455 635.046 185.158 634.276 184.938C633.528 184.696 632.626 184.443 631.57 184.179C630.382 183.849 629.381 183.508 628.567 183.156C627.775 182.782 627.17 182.32 626.752 181.77C626.356 181.198 626.158 180.461 626.158 179.559C626.158 178.437 626.433 177.513 626.983 176.787C627.555 176.039 628.325 175.478 629.293 175.104C630.283 174.708 631.383 174.51 632.593 174.51C633.913 174.51 635.079 174.719 636.091 175.137C637.103 175.555 637.928 176.138 638.566 176.886L637.477 178.404C636.861 177.7 636.124 177.183 635.266 176.853C634.43 176.501 633.495 176.325 632.461 176.325C631.757 176.325 631.086 176.424 630.448 176.622C629.81 176.798 629.282 177.106 628.864 177.546C628.468 177.964 628.27 178.547 628.27 179.295C628.27 179.911 628.424 180.395 628.732 180.747C629.04 181.077 629.502 181.363 630.118 181.605C630.734 181.825 631.493 182.067 632.395 182.331C633.693 182.683 634.826 183.046 635.794 183.42C636.762 183.772 637.51 184.234 638.038 184.806C638.566 185.378 638.83 186.181 638.83 187.215C638.83 188.821 638.225 190.075 637.015 190.977C635.805 191.879 634.21 192.33 632.23 192.33Z" fill="#0B0B0B"/>
</g>
<defs>
<clipPath id="clip0_1_2">
<rect width="658" height="210" fill="white"/>
</clipPath>
</defs>
</svg>
